# xmcd
#
# Track frame offsets:
#	150
#	10393
#	22138
#	33437
#	45695
#	58102
#	73848
#	86700
#	101065
#	113778
#
# Disc length: 1753 seconds
#
# Revision: 1
# Processed by: cddbd v1.5.2PL0 Copyright (c) Steve Scherf et al.
# Submitted via: audiograbber 1.83.01
#
DISCID=8b06d70a
DTITLE=Chico Che - El Esdrújulo
DYEAR=2001
DGENRE=Tropical
TTITLE0=El Esdrújulo
TTITLE1=Pobrecito mi cigarro
TTITLE2=Para mi eres onda pasada
TTITLE3=Ya no hay Beatles
TTITLE4=Con la guitarra de Chava
TTITLE5=Llegamos a Solola
TTITLE6=Soy campesino
TTITLE7=Para decir adiós
TTITLE8=Bongo Kitake
TTITLE9=A llegado El Carnaval
EXTD=
EXTT0=
EXTT1=
EXTT2=
EXTT3=
EXTT4=
EXTT5=
EXTT6=
EXTT7=
EXTT8=
EXTT9=
PLAYORDER=
